<svg id="visual" viewBox="0 0 960 150" width="960" height="150" xmlns="http://www.w3.org/2000/svg" xmlns:xlink="http://www.w3.org/1999/xlink" version="1.1"><rect x="0" y="0" width="960" height="150" fill="#F5BE9A"></rect><path d="M0 31L16 30.8C32 30.7 64 30.3 96 28.3C128 26.3 160 22.7 192 21.7C224 20.7 256 22.3 288 23.2C320 24 352 24 384 24.3C416 24.7 448 25.3 480 24.5C512 23.7 544 21.3 576 20C608 18.7 640 18.3 672 20.5C704 22.7 736 27.3 768 27.2C800 27 832 22 864 19.5C896 17 928 17 944 17L960 17L960 151L944 151C928 151 896 151 864 151C832 151 800 151 768 151C736 151 704 151 672 151C640 151 608 151 576 151C544 151 512 151 480 151C448 151 416 151 384 151C352 151 320 151 288 151C256 151 224 151 192 151C160 151 128 151 96 151C64 151 32 151 16 151L0 151Z" fill="#b11e1b"></path><path d="M0 32L16 34C32 36 64 40 96 42.7C128 45.3 160 46.7 192 47C224 47.3 256 46.7 288 45.3C320 44 352 42 384 40.2C416 38.3 448 36.7 480 38.2C512 39.7 544 44.3 576 46.5C608 48.7 640 48.3 672 46C704 43.7 736 39.3 768 37.2C800 35 832 35 864 36.7C896 38.3 928 41.7 944 43.3L960 45L960 151L944 151C928 151 896 151 864 151C832 151 800 151 768 151C736 151 704 151 672 151C640 151 608 151 576 151C544 151 512 151 480 151C448 151 416 151 384 151C352 151 320 151 288 151C256 151 224 151 192 151C160 151 128 151 96 151C64 151 32 151 16 151L0 151Z" fill="#971c1d"></path><path d="M0 65L16 65.3C32 65.7 64 66.3 96 64.2C128 62 160 57 192 54.7C224 52.3 256 52.7 288 54.2C320 55.7 352 58.3 384 60C416 61.7 448 62.3 480 61.3C512 60.3 544 57.7 576 57.8C608 58 640 61 672 61.5C704 62 736 60 768 60C800 60 832 62 864 61.7C896 61.3 928 58.7 944 57.3L960 56L960 151L944 151C928 151 896 151 864 151C832 151 800 151 768 151C736 151 704 151 672 151C640 151 608 151 576 151C544 151 512 151 480 151C448 151 416 151 384 151C352 151 320 151 288 151C256 151 224 151 192 151C160 151 128 151 96 151C64 151 32 151 16 151L0 151Z" fill="#7d1a1e"></path><path d="M0 73L16 72.8C32 72.7 64 72.3 96 74C128 75.7 160 79.3 192 80.3C224 81.3 256 79.7 288 78.3C320 77 352 76 384 74.7C416 73.3 448 71.7 480 71.3C512 71 544 72 576 72.5C608 73 640 73 672 73.2C704 73.3 736 73.7 768 73.3C800 73 832 72 864 73.8C896 75.7 928 80.3 944 82.7L960 85L960 151L944 151C928 151 896 151 864 151C832 151 800 151 768 151C736 151 704 151 672 151C640 151 608 151 576 151C544 151 512 151 480 151C448 151 416 151 384 151C352 151 320 151 288 151C256 151 224 151 192 151C160 151 128 151 96 151C64 151 32 151 16 151L0 151Z" fill="#63191c"></path><path d="M0 89L16 89.5C32 90 64 91 96 91.7C128 92.3 160 92.7 192 93.8C224 95 256 97 288 96.5C320 96 352 93 384 93.5C416 94 448 98 480 99.2C512 100.3 544 98.7 576 96.2C608 93.7 640 90.3 672 89.5C704 88.7 736 90.3 768 92.2C800 94 832 96 864 95.3C896 94.7 928 91.3 944 89.7L960 88L960 151L944 151C928 151 896 151 864 151C832 151 800 151 768 151C736 151 704 151 672 151C640 151 608 151 576 151C544 151 512 151 480 151C448 151 416 151 384 151C352 151 320 151 288 151C256 151 224 151 192 151C160 151 128 151 96 151C64 151 32 151 16 151L0 151Z" fill="#4a1719"></path><path d="M0 120L16 118.7C32 117.3 64 114.7 96 112.7C128 110.7 160 109.3 192 109.5C224 109.7 256 111.3 288 111.3C320 111.3 352 109.7 384 108.7C416 107.7 448 107.3 480 107C512 106.7 544 106.3 576 106.8C608 107.3 640 108.7 672 109.7C704 110.7 736 111.3 768 110.7C800 110 832 108 864 107.7C896 107.3 928 108.7 944 109.3L960 110L960 151L944 151C928 151 896 151 864 151C832 151 800 151 768 151C736 151 704 151 672 151C640 151 608 151 576 151C544 151 512 151 480 151C448 151 416 151 384 151C352 151 320 151 288 151C256 151 224 151 192 151C160 151 128 151 96 151C64 151 32 151 16 151L0 151Z" fill="#311415"></path><path d="M0 135L16 134.7C32 134.3 64 133.7 96 132.8C128 132 160 131 192 130.7C224 130.3 256 130.7 288 130.3C320 130 352 129 384 128.8C416 128.7 448 129.3 480 129.3C512 129.3 544 128.7 576 127.5C608 126.3 640 124.7 672 123.8C704 123 736 123 768 123.2C800 123.3 832 123.7 864 125.8C896 128 928 132 944 134L960 136L960 151L944 151C928 151 896 151 864 151C832 151 800 151 768 151C736 151 704 151 672 151C640 151 608 151 576 151C544 151 512 151 480 151C448 151 416 151 384 151C352 151 320 151 288 151C256 151 224 151 192 151C160 151 128 151 96 151C64 151 32 151 16 151L0 151Z" fill="#190e0e"></path></svg>