<svg id="visual" viewBox="0 0 960 100" width="960" height="100" xmlns="http://www.w3.org/2000/svg" xmlns:xlink="http://www.w3.org/1999/xlink" version="1.1"><rect x="0" y="0" width="960" height="100" fill="#190e0e"></rect><path d="M0 25L14.5 32C29 39 58 53 87.2 59.7C116.3 66.3 145.7 65.7 174.8 60.7C204 55.7 233 46.3 262 39.5C291 32.7 320 28.3 349 32.3C378 36.3 407 48.7 436.2 48.5C465.3 48.3 494.7 35.7 523.8 30.2C553 24.7 582 26.3 611 30.2C640 34 669 40 698 47C727 54 756 62 785.2 61C814.3 60 843.7 50 872.8 46.7C902 43.3 931 46.7 945.5 48.3L960 50L960 101L945.5 101C931 101 902 101 872.8 101C843.7 101 814.3 101 785.2 101C756 101 727 101 698 101C669 101 640 101 611 101C582 101 553 101 523.8 101C494.7 101 465.3 101 436.2 101C407 101 378 101 349 101C320 101 291 101 262 101C233 101 204 101 174.8 101C145.7 101 116.3 101 87.2 101C58 101 29 101 14.5 101L0 101Z" fill="#311415" stroke-linecap="round" stroke-linejoin="miter"></path></svg>