<svg id="visual" viewBox="0 0 960 300" width="960" height="300" xmlns="http://www.w3.org/2000/svg" xmlns:xlink="http://www.w3.org/1999/xlink" version="1.1"><rect x="0" y="0" width="960" height="300" fill="#F5BE9A"></rect><path d="M0 62L16 61.8C32 61.7 64 61.3 96 57.7C128 54 160 47 192 45.2C224 43.3 256 46.7 288 48.3C320 50 352 50 384 50.5C416 51 448 52 480 50.3C512 48.7 544 44.3 576 41.5C608 38.7 640 37.3 672 41.5C704 45.7 736 55.3 768 55.3C800 55.3 832 45.7 864 40.7C896 35.7 928 35.3 944 35.2L960 35L960 301L944 301C928 301 896 301 864 301C832 301 800 301 768 301C736 301 704 301 672 301C640 301 608 301 576 301C544 301 512 301 480 301C448 301 416 301 384 301C352 301 320 301 288 301C256 301 224 301 192 301C160 301 128 301 96 301C64 301 32 301 16 301L0 301Z" fill="#b11e1b"></path><path d="M0 65L16 68.8C32 72.7 64 80.3 96 85.5C128 90.7 160 93.3 192 94C224 94.7 256 93.3 288 90.8C320 88.3 352 84.7 384 81.2C416 77.7 448 74.3 480 77.5C512 80.7 544 90.3 576 94.7C608 99 640 98 672 93.3C704 88.7 736 80.3 768 76C800 71.7 832 71.3 864 74.3C896 77.3 928 83.7 944 86.8L960 90L960 301L944 301C928 301 896 301 864 301C832 301 800 301 768 301C736 301 704 301 672 301C640 301 608 301 576 301C544 301 512 301 480 301C448 301 416 301 384 301C352 301 320 301 288 301C256 301 224 301 192 301C160 301 128 301 96 301C64 301 32 301 16 301L0 301Z" fill="#971c1d"></path><path d="M0 130L16 130.8C32 131.7 64 133.3 96 129.3C128 125.3 160 115.7 192 111C224 106.3 256 106.7 288 109.3C320 112 352 117 384 120.3C416 123.7 448 125.3 480 123.5C512 121.7 544 116.3 576 116.7C608 117 640 123 672 124C704 125 736 121 768 121C800 121 832 125 864 124.2C896 123.3 928 117.7 944 114.8L960 112L960 301L944 301C928 301 896 301 864 301C832 301 800 301 768 301C736 301 704 301 672 301C640 301 608 301 576 301C544 301 512 301 480 301C448 301 416 301 384 301C352 301 320 301 288 301C256 301 224 301 192 301C160 301 128 301 96 301C64 301 32 301 16 301L0 301Z" fill="#7d1a1e"></path><path d="M0 148L16 147.7C32 147.3 64 146.7 96 149.8C128 153 160 160 192 161.7C224 163.3 256 159.7 288 157.2C320 154.7 352 153.3 384 150.7C416 148 448 144 480 143.3C512 142.7 544 145.3 576 146.5C608 147.7 640 147.3 672 147.5C704 147.7 736 148.3 768 147.7C800 147 832 145 864 148.8C896 152.7 928 162.3 944 167.2L960 172L960 301L944 301C928 301 896 301 864 301C832 301 800 301 768 301C736 301 704 301 672 301C640 301 608 301 576 301C544 301 512 301 480 301C448 301 416 301 384 301C352 301 320 301 288 301C256 301 224 301 192 301C160 301 128 301 96 301C64 301 32 301 16 301L0 301Z" fill="#63191c"></path><path d="M0 178L16 179.2C32 180.3 64 182.7 96 184.2C128 185.7 160 186.3 192 188.8C224 191.3 256 195.7 288 194.5C320 193.3 352 186.7 384 187.3C416 188 448 196 480 198.5C512 201 544 198 576 193.2C608 188.3 640 181.7 672 180C704 178.3 736 181.7 768 185.3C800 189 832 193 864 191.8C896 190.7 928 184.3 944 181.2L960 178L960 301L944 301C928 301 896 301 864 301C832 301 800 301 768 301C736 301 704 301 672 301C640 301 608 301 576 301C544 301 512 301 480 301C448 301 416 301 384 301C352 301 320 301 288 301C256 301 224 301 192 301C160 301 128 301 96 301C64 301 32 301 16 301L0 301Z" fill="#4a1719"></path><path d="M0 241L16 238.2C32 235.3 64 229.7 96 225.8C128 222 160 220 192 220.7C224 221.3 256 224.7 288 224.5C320 224.3 352 220.7 384 218.5C416 216.3 448 215.7 480 215.2C512 214.7 544 214.3 576 215.5C608 216.7 640 219.3 672 221.2C704 223 736 224 768 222.5C800 221 832 217 864 216.5C896 216 928 219 944 220.5L960 222L960 301L944 301C928 301 896 301 864 301C832 301 800 301 768 301C736 301 704 301 672 301C640 301 608 301 576 301C544 301 512 301 480 301C448 301 416 301 384 301C352 301 320 301 288 301C256 301 224 301 192 301C160 301 128 301 96 301C64 301 32 301 16 301L0 301Z" fill="#311415"></path><path d="M0 271L16 270.3C32 269.7 64 268.3 96 266.7C128 265 160 263 192 262.3C224 261.7 256 262.3 288 261.5C320 260.7 352 258.3 384 258C416 257.7 448 259.3 480 259.3C512 259.3 544 257.7 576 255.3C608 253 640 250 672 248.7C704 247.3 736 247.7 768 248.2C800 248.7 832 249.3 864 253.3C896 257.3 928 264.7 944 268.3L960 272L960 301L944 301C928 301 896 301 864 301C832 301 800 301 768 301C736 301 704 301 672 301C640 301 608 301 576 301C544 301 512 301 480 301C448 301 416 301 384 301C352 301 320 301 288 301C256 301 224 301 192 301C160 301 128 301 96 301C64 301 32 301 16 301L0 301Z" fill="#190e0e"></path></svg>